<?xml version="1.0" encoding="UTF-8"?>
<svg version="1.1" xmlns="http://www.w3.org/2000/svg" xmlns:xlink="http://www.w3.org/1999/xlink" viewBox="0 0 20.0625 25.1367">
 <g>
  <rect height="25.1367" opacity="0" width="20.0625" x="0" y="0"/>
  <path d="M5.39062 16.3125C4.96875 16.3125 4.65234 15.9844 4.65234 15.5742C4.65234 15.1758 4.96875 14.8711 5.39062 14.8711L14.3438 14.8711C14.7656 14.8711 15.0703 15.1758 15.0703 15.5742C15.0703 15.9844 14.7656 16.3125 14.3438 16.3125ZM5.39062 19.8281C4.96875 19.8281 4.65234 19.5234 4.65234 19.125C4.65234 18.7148 4.96875 18.3867 5.39062 18.3867L9.62109 18.3867C10.043 18.3867 10.3477 18.7148 10.3477 19.125C10.3477 19.5234 10.043 19.8281 9.62109 19.8281ZM9.58594 10.4883C9.08203 10.4883 8.78906 10.2188 8.78906 9.70312C8.78906 9.65625 8.78906 9.60938 8.78906 9.57422C8.78906 8.625 9.30469 8.10938 9.98438 7.62891C10.8047 7.06641 11.1797 6.76172 11.1797 6.16406C11.1797 5.47266 10.6641 5.01562 9.80859 5.01562C9.17578 5.01562 8.70703 5.33203 8.40234 5.88281L8.23828 6.09375C8.0625 6.33984 7.86328 6.49219 7.51172 6.49219C7.18359 6.49219 6.82031 6.24609 6.82031 5.80078C6.82031 5.66016 6.83203 5.53125 6.86719 5.40234C7.125 4.33594 8.48438 3.64453 9.87891 3.64453C11.4844 3.64453 12.9023 4.51172 12.9023 6.09375C12.9023 7.23047 12.2344 7.81641 11.3203 8.41406C10.6758 8.84766 10.3945 9.15234 10.3945 9.64453C10.3945 9.69141 10.3945 9.72656 10.3945 9.77344C10.3945 10.1719 10.0781 10.4883 9.58594 10.4883ZM9.57422 13.2773C8.98828 13.2773 8.49609 12.8086 8.49609 12.2578C8.49609 11.6836 8.97656 11.2148 9.57422 11.2148C10.1484 11.2148 10.6289 11.6719 10.6289 12.2578C10.6289 12.8203 10.125 13.2773 9.57422 13.2773ZM0 21.457C0 23.9062 1.20703 25.125 3.63281 25.125L16.0781 25.125C18.5039 25.125 19.7109 23.9062 19.7109 21.457L19.7109 3.67969C19.7109 1.24219 18.5039 0 16.0781 0L3.63281 0C1.20703 0 0 1.24219 0 3.67969Z" fill="teal" fill-opacity="0.85"/>
 </g>
</svg>
